<svg width="1091" height="1031" xmlns="http://www.w3.org/2000/svg" xmlns:xlink="http://www.w3.org/1999/xlink" xml:space="preserve" overflow="hidden"><defs><filter id="fx0" x="-10%" y="-10%" width="120%" height="120%" filterUnits="userSpaceOnUse" primitiveUnits="userSpaceOnUse"><feComponentTransfer color-interpolation-filters="sRGB"><feFuncR type="discrete" tableValues="0.000000 0.000000"/><feFuncG type="discrete" tableValues="0.000000 0.000000"/><feFuncB type="discrete" tableValues="0.000000 0.000000"/><feFuncA type="linear" slope="0.631373" intercept="0.000000"/></feComponentTransfer><feGaussianBlur stdDeviation="6.875000 6.875000"/></filter><filter id="fx1" x="-10%" y="-10%" width="120%" height="120%" filterUnits="userSpaceOnUse" primitiveUnits="userSpaceOnUse"><feComponentTransfer color-interpolation-filters="sRGB"><feFuncR type="discrete" tableValues="0.000000 0.000000"/><feFuncG type="discrete" tableValues="0.000000 0.000000"/><feFuncB type="discrete" tableValues="0.000000 0.000000"/><feFuncA type="linear" slope="0.631373" intercept="0.000000"/></feComponentTransfer><feGaussianBlur stdDeviation="6.875000 6.875000"/></filter><clipPath id="clip2"><rect x="1.37512" y="1.24997" width="1027.25" height="1027.25"/></clipPath><linearGradient x1="2200" y1="1337" x2="2200" y2="351" gradientUnits="userSpaceOnUse" spreadMethod="reflect" id="fill3"><stop offset="0" stop-color="#002C3F" stop-opacity="1"/><stop offset="0.5" stop-color="#00445F" stop-opacity="1"/><stop offset="1" stop-color="#005272" stop-opacity="1"/></linearGradient></defs><g transform="translate(-1654 -334)"><g><g clip-path="url(#clip2)" filter="url(#fx0)" transform="translate(1685 336)"><g><g><rect x="22.0001" y="21.875" width="986" height="986" fill="#FF0000" fill-opacity="1"/></g></g></g><g filter="url(#fx1)" transform="translate(1656 606)"><g><g><path d="M36.208-82.584C36.208-90.52 37.572-97.96 40.3-104.904 43.028-111.848 46.872-117.883 51.832-123.008 56.792-128.133 62.8267-132.184 69.936-135.16 77.0453-138.136 84.9813-139.624 93.744-139.624 98.0427-139.624 101.887-139.335 105.276-138.756 108.665-138.177 111.517-137.475 113.832-136.648 116.643-135.821 119.04-134.829 121.024-133.672L124.496-139.624C121.851-140.781 119.04-141.856 116.064-142.848 113.253-143.675 110.029-144.419 106.392-145.08 102.755-145.741 98.5387-146.072 93.744-146.072 85.312-146.072 77.252-144.584 69.564-141.608 61.876-138.632 55.0973-134.375 49.228-128.836 43.3587-123.297 38.6467-116.601 35.092-108.748 31.5373-100.895 29.76-92.1733 29.76-82.584 29.76-72.8293 31.4547-64.0667 34.844-56.296 38.2333-48.5253 42.904-41.8707 48.856-36.332 54.808-30.7933 61.752-26.536 69.688-23.56 77.624-20.584 86.056-19.096 94.984-19.096 99.944-19.096 104.408-19.5093 108.376-20.336 112.344-21.1627 115.733-22.072 118.544-23.064 121.685-24.2213 124.496-25.544 126.976-27.032L123.504-32.984C121.355-31.496 118.875-30.256 116.064-29.264 113.584-28.272 110.608-27.404 107.136-26.66 103.664-25.916 99.6133-25.544 94.984-25.544 85.8907-25.544 77.7067-27.032 70.432-30.008 63.1573-32.984 56.9987-37.0347 51.956-42.16 46.9133-47.2853 43.028-53.32 40.3-60.264 37.572-67.208 36.208-74.648 36.208-82.584ZM4.96-82.584C4.96-95.8107 7.27467-107.756 11.904-118.42 16.5333-129.084 22.816-138.219 30.752-145.824 38.688-153.429 47.9467-159.257 58.528-163.308 69.1093-167.359 80.352-169.384 92.256-169.384 101.68-169.384 110.071-168.475 117.428-166.656 124.785-164.837 131.109-162.771 136.4-160.456 142.517-157.811 147.808-154.917 152.272-151.776L126.232-105.896C123.587-107.88 120.693-109.781 117.552-111.6 114.741-112.923 111.393-114.204 107.508-115.444 103.623-116.684 99.2-117.304 94.24-117.304 89.1147-117.304 84.4027-116.395 80.104-114.576 75.8053-112.757 72.044-110.277 68.82-107.136 65.596-103.995 63.0747-100.316 61.256-96.1 59.4373-91.884 58.528-87.3787 58.528-82.584 58.528-77.7893 59.4787-73.284 61.38-69.068 63.2813-64.852 65.8853-61.1733 69.192-58.032 72.4987-54.8907 76.384-52.4107 80.848-50.592 85.312-48.7733 90.1893-47.864 95.48-47.864 100.771-47.864 105.483-48.5253 109.616-49.848 113.749-51.1707 117.221-52.6587 120.032-54.312 123.339-56.1307 126.232-58.28 128.712-60.76L154.752-14.88C150.288-11.2427 144.997-8.01867 138.88-5.208 133.589-2.89333 127.224-0.744 119.784 1.24 112.344 3.224 103.829 4.216 94.24 4.216 81.344 4.216 69.44 2.108 58.528-2.108 47.616-6.324 38.192-12.2347 30.256-19.84 22.32-27.4453 16.12-36.58 11.656-47.244 7.192-57.908 4.96-69.688 4.96-82.584ZM173.181-82.584C173.181-90.52 174.545-97.96 177.273-104.904 180.001-111.848 183.845-117.883 188.805-123.008 193.765-128.133 199.8-132.184 206.909-135.16 214.018-138.136 221.954-139.624 230.717-139.624 235.016-139.624 238.86-139.335 242.249-138.756 245.638-138.177 248.49-137.475 250.805-136.648 253.616-135.821 256.013-134.829 257.997-133.672L261.469-139.624C258.824-140.781 256.013-141.856 253.037-142.848 250.226-143.675 247.002-144.419 243.365-145.08 239.728-145.741 235.512-146.072 230.717-146.072 222.285-146.072 214.225-144.584 206.537-141.608 198.849-138.632 192.07-134.375 186.201-128.836 180.332-123.297 175.62-116.601 172.065-108.748 168.51-100.895 166.733-92.1733 166.733-82.584 166.733-72.8293 168.428-64.0667 171.817-56.296 175.206-48.5253 179.877-41.8707 185.829-36.332 191.781-30.7933 198.725-26.536 206.661-23.56 214.597-20.584 223.029-19.096 231.957-19.096 236.917-19.096 241.381-19.5093 245.349-20.336 249.317-21.1627 252.706-22.072 255.517-23.064 258.658-24.2213 261.469-25.544 263.949-27.032L260.477-32.984C258.328-31.496 255.848-30.256 253.037-29.264 250.557-28.272 247.581-27.404 244.109-26.66 240.637-25.916 236.586-25.544 231.957-25.544 222.864-25.544 214.68-27.032 207.405-30.008 200.13-32.984 193.972-37.0347 188.929-42.16 183.886-47.2853 180.001-53.32 177.273-60.264 174.545-67.208 173.181-74.648 173.181-82.584ZM141.933-82.584C141.933-95.8107 144.248-107.756 148.877-118.42 153.506-129.084 159.789-138.219 167.725-145.824 175.661-153.429 184.92-159.257 195.501-163.308 206.082-167.359 217.325-169.384 229.229-169.384 238.653-169.384 247.044-168.475 254.401-166.656 261.758-164.837 268.082-162.771 273.373-160.456 279.49-157.811 284.781-154.917 289.245-151.776L263.205-105.896C260.56-107.88 257.666-109.781 254.525-111.6 251.714-112.923 248.366-114.204 244.481-115.444 240.596-116.684 236.173-117.304 231.213-117.304 226.088-117.304 221.376-116.395 217.077-114.576 212.778-112.757 209.017-110.277 205.793-107.136 202.569-103.995 200.048-100.316 198.229-96.1 196.41-91.884 195.501-87.3787 195.501-82.584 195.501-77.7893 196.452-73.284 198.353-69.068 200.254-64.852 202.858-61.1733 206.165-58.032 209.472-54.8907 213.357-52.4107 217.821-50.592 222.285-48.7733 227.162-47.864 232.453-47.864 237.744-47.864 242.456-48.5253 246.589-49.848 250.722-51.1707 254.194-52.6587 257.005-54.312 260.312-56.1307 263.205-58.28 265.685-60.76L291.725-14.88C287.261-11.2427 281.97-8.01867 275.853-5.208 270.562-2.89333 264.197-0.744 256.757 1.24 249.317 3.224 240.802 4.216 231.213 4.216 218.317 4.216 206.413 2.108 195.501-2.108 184.589-6.324 175.165-12.2347 167.229-19.84 159.293-27.4453 153.093-36.58 148.629-47.244 144.165-57.908 141.933-69.688 141.933-82.584ZM323.012-122.016 292.508-122.016 292.508-165.416 408.076-165.416 408.076-122.016 377.572-122.016 377.572 0 323.012 0ZM353.516-19.84 353.516-139.624 388.98-139.624 388.98-145.576 311.604-145.576 311.604-139.624 347.068-139.624 347.068-19.84ZM416.345-165.416 513.809-165.416 513.809-122.016 469.169-122.016 469.169-103.664 513.065-103.664 513.065-62.496 469.169-62.496 469.169-43.4 515.545-43.4 515.545 0 416.345 0ZM497.193-19.84 497.193-25.792 447.593-25.792 447.593-80.104 494.713-80.104 494.713-86.056 447.593-86.056 447.593-139.624 497.193-139.624 497.193-145.576 441.145-145.576 441.145-19.84ZM546.723-21.576C549.038-21.08 551.518-20.6667 554.163-20.336 556.478-20.0053 558.916-19.716 561.479-19.468 564.042-19.22 566.646-19.096 569.291-19.096 573.92-19.096 578.426-19.6333 582.807-20.708 587.188-21.7827 591.115-23.56 594.587-26.04 598.059-28.52 600.828-31.7027 602.895-35.588 604.962-39.4733 605.995-44.2267 605.995-49.848 605.995-54.6427 604.796-59.1893 602.399-63.488 600.002-67.7867 596.943-71.92 593.223-75.888 589.503-79.856 585.535-83.6587 581.319-87.296 577.103-90.9333 573.135-94.612 569.415-98.332 565.695-102.052 562.636-105.772 560.239-109.492 557.842-113.212 556.643-117.056 556.643-121.024 556.643-126.976 558.544-131.564 562.347-134.788 566.15-138.012 572.267-139.624 580.699-139.624 582.022-139.624 583.386-139.583 584.791-139.5 586.196-139.417 587.56-139.293 588.883-139.128 590.206-138.963 591.528-138.88 592.851-138.88L592.851-145.328C591.694-145.328 590.454-145.411 589.131-145.576 587.974-145.741 586.692-145.865 585.287-145.948 583.882-146.031 582.435-146.072 580.947-146.072 572.019-146.072 564.662-144.047 558.875-139.996 553.088-135.945 550.195-129.621 550.195-121.024 550.195-116.395 551.394-112.055 553.791-108.004 556.188-103.953 559.247-99.9853 562.967-96.1 566.687-92.2147 570.655-88.4533 574.871-84.816 579.087-81.1787 583.055-77.5 586.775-73.78 590.495-70.06 593.554-66.216 595.951-62.248 598.348-58.28 599.547-54.1467 599.547-49.848 599.547-41.912 596.86-35.8773 591.487-31.744 586.114-27.6107 578.715-25.544 569.291-25.544 563.67-25.544 558.544-25.9573 553.915-26.784 551.435-27.1147 549.038-27.528 546.723-28.024ZM525.891-51.336C529.528-50.1787 533.331-49.2693 537.299-48.608 540.606-47.7813 544.367-47.12 548.583-46.624 552.799-46.128 557.056-45.88 561.355-45.88 568.96-45.88 572.763-48.6907 572.763-54.312 572.763-56.4613 571.606-58.652 569.291-60.884 566.976-63.116 564.042-65.596 560.487-68.324 556.932-71.052 553.13-74.0693 549.079-77.376 545.028-80.6827 541.226-84.4853 537.671-88.784 534.116-93.0827 531.182-97.9187 528.867-103.292 526.552-108.665 525.395-114.824 525.395-121.768 525.395-129.539 526.8-136.4 529.611-142.352 532.422-148.304 536.307-153.264 541.267-157.232 546.227-161.2 552.055-164.217 558.751-166.284 565.447-168.351 572.598-169.384 580.203-169.384 584.171-169.384 588.139-169.177 592.107-168.764 596.075-168.351 599.63-167.979 602.771-167.648 606.408-167.152 609.963-166.656 613.435-166.16L613.435-119.784C612.112-119.949 610.624-120.115 608.971-120.28 607.648-120.445 606.16-120.611 604.507-120.776 602.854-120.941 601.118-121.024 599.299-121.024 598.307-121.024 597.067-120.983 595.579-120.9 594.091-120.817 592.686-120.611 591.363-120.28 590.04-119.949 588.883-119.371 587.891-118.544 586.899-117.717 586.403-116.56 586.403-115.072 586.403-113.749 587.519-112.096 589.751-110.112 591.983-108.128 594.711-105.813 597.935-103.168 601.159-100.523 604.714-97.464 608.599-93.992 612.484-90.52 616.039-86.552 619.263-82.088 622.487-77.624 625.215-72.5813 627.447-66.96 629.679-61.3387 630.795-55.056 630.795-48.112 630.795-40.8373 629.638-34.0173 627.323-27.652 625.008-21.2867 621.412-15.748 616.535-11.036 611.658-6.324 605.416-2.604 597.811 0.124 590.206 2.852 581.195 4.216 570.779 4.216 564.496 4.216 558.668 3.92667 553.295 3.348 547.922 2.76933 543.168 2.06667 539.035 1.24 534.24 0.413333 529.859-0.578667 525.891-1.736ZM663.325-122.016 632.821-122.016 632.821-165.416 748.389-165.416 748.389-122.016 717.885-122.016 717.885 0 663.325 0ZM693.829-19.84 693.829-139.624 729.293-139.624 729.293-145.576 651.917-145.576 651.917-139.624 687.381-139.624 687.381-19.84Z" fill="#FFFFFF" fill-rule="nonzero" fill-opacity="1" transform="matrix(1 0 0 1 170.011 329)"/></g></g></g><rect x="1707" y="351" width="986" height="986" fill="url(#fill3)"/><text fill="#FFFFFF" fill-opacity="1" font-family="Phosphate,Phosphate_MSFontService,sans-serif" font-style="normal" font-variant="normal" font-weight="400" font-stretch="normal" font-size="248" text-anchor="start" direction="ltr" writing-mode="lr-tb" unicode-bidi="normal" text-decoration="none" transform="matrix(1 0 0 1 1826.01 928)">CCTest</text></g></g></svg>